<svg width="340" height="77" viewBox="0 0 340 77" fill="none" xmlns="http://www.w3.org/2000/svg">
<path d="M5.62084 31.2621L5.35134 30.8771V30.8001L5.23584 30.4536L5.46684 30.5691L5.58234 30.6461V30.8386C5.62084 30.9926 5.62084 31.1466 5.62084 31.2621Z" fill="#FD2F60"/>
<path fill-rule="evenodd" clip-rule="evenodd" d="M5.62092 31.2619C5.62092 31.1464 5.62092 30.9924 5.62092 30.8769V30.6844L5.50541 30.6074L5.27441 30.4919L5.35141 30.8384V30.9154L5.62092 31.2619Z" fill="#FD2F60"/>
<path d="M5.62092 30.8769V30.6844L5.50541 30.6074L5.27441 30.4919L5.35141 30.8384V30.9154L5.62092 31.3004C5.62092 31.1464 5.62092 30.9924 5.62092 30.8769Z" fill="#FD2F60"/>
<path d="M73.1884 55.4401C70.8399 54.5161 69.4154 53.0146 67.7599 51.3206C66.3739 49.7806 64.7954 48.4331 63.1014 47.2781C61.8309 46.4696 59.5594 45.4686 55.7864 45.1221C54.9009 45.0451 54.0154 45.0066 53.1299 45.0066C55.0549 41.9651 57.8269 38.7696 63.5634 36.4596C65.4114 35.7281 66.2969 33.6106 65.5654 31.7626C65.2574 30.9926 64.6799 30.3381 63.9484 29.9531L46.8929 20.6746C44.2749 19.2501 41.1564 19.0576 38.3844 20.1741C31.9549 22.7921 29.1444 26.4496 26.6419 30.6461C25.9104 29.4911 25.0634 28.4131 24.1779 27.4506C22.9844 26.1031 20.5204 23.7161 17.7099 22.7151C15.7464 22.0606 13.7059 21.6756 11.6269 21.5216C9.27844 21.2906 7.23795 21.0596 5.04345 19.7891L2.69495 18.4031L1.77095 20.9826C1.65545 21.3676 0.500446 24.6401 2.04045 27.7586C2.50245 28.6826 3.11845 29.4526 3.88845 30.1071C4.27345 30.4151 4.69695 30.7231 5.15895 30.9541C5.19745 32.5711 5.96745 34.0726 7.19945 35.0736C8.58545 36.2286 10.3564 36.7676 12.1274 36.5751C12.2814 36.7676 12.4739 36.9601 12.6664 37.1526C13.9369 38.3461 15.6694 39.0006 17.4019 39.0006C17.7099 39.0006 18.0564 38.9621 18.3644 38.9236C18.6724 38.8851 18.9419 38.8466 19.2114 38.7696C19.9814 38.5771 20.6744 38.1921 21.2904 37.6916C21.4829 37.8841 21.6754 38.0381 21.9064 38.1921C19.6734 41.0411 16.0159 44.5446 7.96945 47.3936C6.08295 48.0481 5.12045 50.1271 5.77495 52.0136C6.08295 52.8606 6.66044 53.5536 7.46894 53.9771L25.5639 63.8331C26.9499 64.6031 28.4899 64.9881 30.0684 64.9881C31.1079 64.9881 32.1089 64.8341 33.1099 64.4876C42.0034 61.4461 45.8534 57.0571 48.2404 53.4766C48.4714 53.5536 48.7409 53.6306 49.0104 53.6306C48.9719 54.7086 49.2799 55.7866 49.8574 56.7106C50.8584 58.4816 52.6294 59.7136 54.6314 60.0986C54.9394 60.1371 55.2474 60.1756 55.5554 60.2141L55.6709 60.4066C56.6334 61.8311 58.0964 62.7936 59.7519 63.1401C60.1754 63.2171 60.5989 63.2941 61.0224 63.2941C61.5229 63.2941 61.9849 63.2171 62.4469 63.1016C63.1014 62.9091 63.7174 62.6396 64.2949 62.2161C65.8349 62.8706 67.5289 63.0246 69.1459 62.6011C72.1874 61.7926 73.9584 59.2516 74.2664 58.7511L75.7294 56.4026L73.1884 55.4401ZM21.7909 34.0726L21.4829 33.6491L21.4059 33.5336L21.0979 33.6106L21.0594 33.7646C20.9439 34.1111 20.3279 35.8821 18.5954 36.3441C18.4414 36.3826 18.2489 36.4211 18.0949 36.4211C16.1314 36.7291 14.2064 35.7281 13.3979 33.9186L13.3209 33.6876L13.0899 33.8031C12.9359 33.8801 12.7819 33.9186 12.5894 33.9956C11.2804 34.3421 9.89444 34.0341 8.85494 33.1486C7.81544 32.3016 7.46894 30.9156 7.93094 29.6836L8.04644 29.4526L7.81544 29.3756C6.15994 28.8366 5.00495 27.9511 4.42745 26.7191C3.58045 24.9481 4.00395 22.9846 4.19645 22.2531C6.77594 23.6776 9.16294 23.9086 11.5114 24.1781C13.3594 24.2936 15.2074 24.6401 16.9784 25.2176C20.7129 26.5651 24.7939 31.5701 25.7179 34.3036C25.8719 34.7656 25.8334 35.8051 25.2559 36.1901C24.5629 36.6906 23.6389 36.5751 23.0999 35.8821L21.7909 34.0726ZM32.1859 61.6771C30.4919 62.2546 28.6054 62.1006 27.0269 61.2151L8.93194 51.3591C8.62394 51.2051 8.50844 50.8201 8.66244 50.5121C8.73944 50.3581 8.85494 50.2811 9.00894 50.2041C15.1689 48.0481 19.5964 45.3146 22.9844 41.5416L44.2364 53.8616C41.9649 56.6721 38.5384 59.5211 32.1859 61.6771ZM30.0684 30.8001C32.1089 27.6046 34.6114 24.9481 39.5009 22.9461C41.4259 22.1761 43.6204 22.2916 45.4684 23.2926L62.4854 32.5711C62.7164 32.6866 62.8319 32.9176 62.8319 33.1486C62.8319 33.3796 62.6779 33.6106 62.4469 33.7261C56.6719 36.0361 53.4764 39.1161 50.9739 42.9276L30.0684 30.8001ZM68.4914 60.1756C67.0284 60.5606 65.5269 60.2141 64.0254 59.1746L63.7944 59.0206L63.6789 59.2516C63.2554 59.9061 62.6009 60.4066 61.8309 60.6376C61.3304 60.7531 60.8299 60.7531 60.3294 60.6376C58.8279 60.3296 57.5959 59.2131 57.2109 57.7116L57.1724 57.5191H56.9414H56.9029C54.9779 57.9426 52.9759 57.0571 52.0134 55.3631C50.8199 53.3996 52.2444 51.4746 52.2829 51.3976L52.5909 50.9741H52.0904L49.4724 51.0511C49.0489 51.0511 48.6639 50.8971 48.3944 50.6276C48.0864 50.3581 47.9324 49.9731 47.9324 49.5496C47.9324 48.8181 48.7024 48.1636 49.1644 48.0096L49.5879 47.8941C52.4754 47.1241 58.5199 47.3166 61.7154 49.3571C63.2554 50.3966 64.6799 51.6286 65.9119 53.0146C67.5289 54.7086 69.2229 56.4411 71.9179 57.5961C71.1094 58.8281 69.9159 59.7136 68.4914 60.1756Z" fill="#FD2F60"/>
<path d="M71.9564 57.6731C71.1094 58.8281 69.9159 59.7136 68.5299 60.1371C67.0669 60.5221 65.5654 60.1756 64.0639 59.1361L63.8329 58.9821L63.7174 59.2131C63.2939 59.8676 62.6394 60.3681 61.8694 60.5991C61.3689 60.7146 60.8684 60.7146 60.3679 60.5991C58.8664 60.2911 57.6344 59.1746 57.2494 57.6731L57.2109 57.4806H56.9799H56.9414C55.0164 57.9041 53.0144 57.0186 52.0519 55.3246C50.8584 53.3611 52.2829 51.4361 52.3214 51.3591L52.6294 50.9356H52.1289L49.511 51.0126C49.0875 51.0126 48.7024 50.8586 48.4329 50.5891C48.1249 50.3196 47.9709 49.9346 47.9709 49.5111C47.9709 48.7796 48.7409 48.1251 49.2029 47.9711L49.6264 47.8556C52.5139 47.0856 58.5584 47.2781 61.7539 49.3186C63.2939 50.3581 64.7184 51.5901 65.9504 52.9761C67.5674 54.7856 69.2614 56.5566 71.9564 57.6731Z" fill="#FD2F60"/>
<path d="M25.179 36.113C24.486 36.6135 23.562 36.498 23.023 35.805L21.791 34.111L21.483 33.6875L21.406 33.572L21.098 33.649L21.0595 33.803C20.944 34.1495 20.328 35.9205 18.5955 36.3825C18.4415 36.421 18.249 36.4595 18.095 36.4595C16.1315 36.7675 14.2065 35.7665 13.398 33.957L13.321 33.726L13.09 33.8415C12.936 33.9185 12.782 33.957 12.5895 34.034C11.2805 34.3805 9.89447 34.0725 8.85496 33.187C7.81546 32.34 7.46896 30.954 7.93096 29.722L8.04646 29.491L7.81546 29.414C6.15996 28.875 5.00496 27.9895 4.42746 26.7575C3.58046 24.9865 4.00396 23.023 4.19646 22.2915C6.77596 23.716 9.16296 23.947 11.5115 24.2165C13.3595 24.332 15.2075 24.6785 16.9785 25.256C20.713 26.6035 24.794 31.6085 25.718 34.342C25.7565 34.65 25.7565 35.651 25.179 36.113Z" fill="#FD2F60"/>
<path d="M62.8319 33.1485C62.8319 33.3795 62.6779 33.6105 62.4469 33.726C56.6719 36.036 53.4764 39.116 50.9739 42.9275L30.0684 30.8C32.1089 27.6045 34.6114 24.948 39.5009 22.946C41.4259 22.176 43.6204 22.2915 45.4684 23.2925L62.4854 32.571C62.7164 32.6865 62.8319 32.9175 62.8319 33.1485Z" fill="#FD2F60"/>
<path d="M44.2364 53.9385C41.9649 56.672 38.5384 59.521 32.1859 61.677C30.4919 62.2545 28.6054 62.1005 27.0269 61.215L8.9319 51.359C8.6239 51.205 8.5084 50.82 8.6624 50.512C8.7394 50.358 8.8549 50.281 9.0089 50.204C15.1689 48.048 19.5964 45.3145 22.9844 41.5415L44.2364 53.9385Z" fill="#FD2F60"/>
<path d="M65.7965 25.8337H62.832V33.3027H65.7965V25.8337Z" fill="#FD2F60"/>
<path d="M75.7293 49.9346H70.3008V56.4411H75.7293V49.9346Z" fill="#FD2F60"/>
<path d="M5.81343 17.5562H1.23193V24.6017H5.81343V17.5562Z" fill="#FD2F60"/>
<path d="M11.6653 44.5447H5.62085V51.2437H11.6653V44.5447Z" fill="#FD2F60"/>
<path d="M5.62084 24.8327L5.35134 24.4477V24.3707L5.23584 24.0242L5.46684 24.1397L5.58234 24.2167V24.4092C5.62084 24.5632 5.62084 24.6787 5.62084 24.8327Z" fill="#171E27"/>
<path fill-rule="evenodd" clip-rule="evenodd" d="M5.62092 24.8325C5.62092 24.717 5.62092 24.563 5.62092 24.4475V24.255L5.50541 24.178L5.27441 24.0625L5.35141 24.409V24.486L5.62092 24.8325Z" fill="#171E27"/>
<path d="M5.62092 24.4092V24.2167L5.50541 24.1397L5.27441 24.0242L5.35141 24.3707V24.4477L5.62092 24.8327C5.62092 24.6787 5.62092 24.5632 5.62092 24.4092Z" fill="#171E27"/>
<path d="M73.1891 48.9721C70.8407 48.0481 69.4161 46.5466 67.7606 44.8526C66.3746 43.3126 64.7961 41.9651 63.1021 40.8101C61.8316 40.0016 59.5601 39.0006 55.7871 38.6541C54.9016 38.5771 54.0161 38.5386 53.1306 38.5386C55.0556 35.4971 57.8277 32.3016 63.5642 29.9916C65.4122 29.2601 66.2976 27.1426 65.5661 25.2946C65.2581 24.5246 64.6807 23.8701 63.9492 23.4851L46.8936 14.2066C44.2756 12.7821 41.1571 12.5896 38.3851 13.7061C31.9556 16.3241 29.1451 19.9816 26.6426 24.1781C25.9111 23.0231 25.0641 21.9451 24.1786 20.9826C22.9852 19.6351 20.5212 17.2481 17.7107 16.2471C15.7472 15.5926 13.7067 15.2076 11.6277 15.0536C9.27915 14.8226 7.23865 14.5916 5.04415 13.3211L2.69565 11.9736L1.77165 14.5531C1.65615 14.8996 0.50115 18.2106 2.00265 21.2906C2.46465 22.2146 3.08065 22.9846 3.85065 23.6391C4.23565 23.9471 4.65915 24.2551 5.12115 24.4861C5.15965 26.1031 5.92965 27.6046 7.16165 28.6056C8.54765 29.7606 10.3186 30.2996 12.0896 30.1071C12.2436 30.2996 12.4361 30.4921 12.6286 30.6846C13.8991 31.8781 15.6316 32.5326 17.3641 32.5326C17.6721 32.5326 18.0186 32.4941 18.3266 32.4556C18.6346 32.4171 18.9042 32.3786 19.1737 32.3016C19.9437 32.1091 20.6367 31.7241 21.2527 31.2236C21.4452 31.4161 21.6376 31.5701 21.8687 31.7241C19.6356 34.5731 15.9781 38.0766 7.93165 40.9256C6.04515 41.5801 5.08265 43.6591 5.73715 45.5456C6.04515 46.3926 6.62265 47.0856 7.43115 47.5091L25.5262 57.3651C26.9122 58.1351 28.4521 58.5201 30.0306 58.5201C31.0701 58.5201 32.0711 58.3661 33.0721 58.0196C41.9656 54.9781 45.8156 50.5891 48.2026 47.0086C48.4336 47.0856 48.7031 47.1626 48.9726 47.1626C48.9341 48.2406 49.2421 49.3186 49.8196 50.2426C50.8206 52.0136 52.5916 53.2456 54.5936 53.6306C54.9016 53.6691 55.2096 53.7076 55.5176 53.7461L55.6331 53.9386C56.5956 55.3631 58.0587 56.3256 59.7142 56.6721C60.1377 56.7491 60.5611 56.8261 60.9846 56.8261C61.4851 56.8261 61.9472 56.7491 62.4092 56.6336C63.0637 56.4411 63.6796 56.1716 64.2571 55.7481C65.7971 56.4026 67.4911 56.5566 69.1081 56.1331C72.1496 55.3246 73.9206 52.7836 74.2286 52.2831L75.6916 49.9346L73.1891 48.9721ZM21.7916 27.6431L21.4837 27.2196L21.4066 27.1041L21.0987 27.1811L21.0602 27.3351C20.9447 27.6816 20.3287 29.4526 18.5962 29.9146C18.4422 29.9531 18.2497 29.9916 18.0957 29.9916C16.1322 30.2996 14.2071 29.2986 13.3986 27.4891L13.3216 27.2581L13.0906 27.3736C12.9366 27.4506 12.7827 27.4891 12.5902 27.5661C11.2812 27.9126 9.89515 27.6046 8.85565 26.7191C7.81615 25.8721 7.46965 24.4861 7.93165 23.2541L8.04715 23.0231L7.81615 22.9461C6.16065 22.4071 5.00565 21.5216 4.42815 20.2896C3.58115 18.5186 4.00465 16.5551 4.19715 15.8236C6.77665 17.2481 9.16365 17.4791 11.5121 17.7486C13.3601 17.8641 15.2081 18.2106 16.9791 18.7881C20.5981 20.0201 24.6792 25.0251 25.6032 27.7586C25.7572 28.2206 25.7187 29.2601 25.1412 29.6451C24.4482 30.1456 23.5242 30.0301 22.9852 29.3371L21.7916 27.6431ZM32.1866 55.2476C30.4926 55.8251 28.6061 55.6711 27.0276 54.7856L8.93265 44.9296C8.62465 44.7756 8.50915 44.3906 8.66315 44.0826C8.74015 43.9286 8.85565 43.8516 9.00965 43.7746C15.1696 41.6186 19.5972 38.8851 22.9852 35.1121L44.2371 47.4321C41.9656 50.2426 38.5391 53.0916 32.1866 55.2476ZM30.0691 24.3321C32.1096 21.1366 34.6121 18.4801 39.5016 16.4781C41.4266 15.7081 43.6211 15.8236 45.4691 16.8246L62.4861 26.1031C62.7171 26.2186 62.8326 26.4496 62.8326 26.6806C62.8326 26.9116 62.6786 27.1426 62.4476 27.2581C56.6726 29.5681 53.4771 32.6481 50.9746 36.4596L30.0691 24.3321ZM68.4921 53.7461C67.0291 54.1311 65.5276 53.7846 64.0261 52.7451L63.7951 52.5911L63.6796 52.8221C63.2561 53.4766 62.6017 53.9771 61.8317 54.2081C61.3312 54.3236 60.8306 54.3236 60.3301 54.2081C58.8286 53.9001 57.5967 52.7836 57.2117 51.2821L57.1731 51.0896H56.9421H56.9036C54.9786 51.5131 52.9767 50.6276 52.0142 48.9336C50.8207 46.9701 52.2451 45.0451 52.2836 44.9681L52.5917 44.5446H52.0911L49.4731 44.6216C49.0496 44.6216 48.6646 44.4676 48.3951 44.1981C48.0871 43.9286 47.9331 43.5436 47.9331 43.1201C47.9331 42.3886 48.7031 41.7341 49.1651 41.5801L49.5886 41.4646C52.4761 40.6946 58.5206 40.8871 61.7161 42.9276C63.2561 43.9671 64.6806 45.1991 65.9126 46.5851C67.5296 48.2791 69.2236 50.0116 71.9186 51.1666C71.1101 52.3601 69.9166 53.2456 68.4921 53.7461Z" fill="#030303"/>
<path d="M71.9562 51.2437C71.1092 52.3987 69.9157 53.2842 68.5297 53.7077C67.0667 54.0927 65.5652 53.7462 64.0637 52.7067L63.8327 52.5527L63.7172 52.7837C63.2937 53.4382 62.6392 53.9387 61.8692 54.1697C61.3687 54.2852 60.8682 54.2852 60.3677 54.1697C58.8662 53.8617 57.6342 52.7452 57.2492 51.2437L57.2107 51.0512H56.9797H56.9412C55.0162 51.4747 53.0142 50.5892 52.0517 48.8952C50.8582 46.9317 52.2827 45.0067 52.3212 44.9297L52.6292 44.5062H52.1287L49.5107 44.5832C49.0872 44.5832 48.7022 44.4292 48.4327 44.1597C48.1247 43.8902 47.9707 43.5052 47.9707 43.0817C47.9707 42.3502 48.7407 41.6957 49.2027 41.5417L49.6262 41.4262C52.5137 40.6562 58.5582 40.8487 61.7537 42.8892C63.2937 43.9287 64.7182 45.1607 65.9502 46.5467C67.5672 48.3562 69.2612 50.0887 71.9562 51.2437Z" fill="white"/>
<path d="M25.1788 29.6452C24.4858 30.1457 23.5618 30.0302 23.0228 29.3372L21.7908 27.6432L21.4828 27.2197L21.4058 27.1042L21.0978 27.1812L21.0593 27.3352C20.9438 27.6817 20.3278 29.4527 18.5953 29.9147C18.4413 29.9532 18.2488 29.9917 18.0948 29.9917C16.1313 30.2997 14.2063 29.2987 13.3978 27.4892L13.3208 27.2582L13.0128 27.3352C12.8588 27.4122 12.7048 27.4507 12.5123 27.5277C11.2033 27.8742 9.81732 27.5662 8.77782 26.6807C7.73832 25.8337 7.39182 24.4477 7.85382 23.2157L7.96932 22.9847L7.73832 22.9077C6.08282 22.3687 4.92782 21.4832 4.35032 20.2512C3.50332 18.4802 3.92682 16.5167 4.11932 15.7852C6.69882 17.2097 9.08582 17.4407 11.4343 17.7102C13.2823 17.8257 15.1303 18.1722 16.9013 18.7497C20.5973 20.0202 24.6783 25.0252 25.6023 27.7587C25.7563 28.1822 25.7563 29.2217 25.1788 29.6452Z" fill="white"/>
<path d="M62.8319 26.6807C62.8319 26.9117 62.6779 27.1427 62.4469 27.2582C56.6719 29.5682 53.4764 32.6482 50.9739 36.4597L30.0684 24.3322C32.1089 21.1367 34.6114 18.4802 39.5009 16.4782C41.4259 15.7082 43.6204 15.8237 45.4684 16.8247L62.4854 26.1032C62.7164 26.2187 62.8319 26.4497 62.8319 26.6807Z" fill="white"/>
<path d="M44.2364 47.5091C41.9649 50.2426 38.5384 53.0916 32.1859 55.2476C30.4919 55.8251 28.6054 55.6711 27.0269 54.7856L8.9319 44.9296C8.6239 44.7756 8.5084 44.3906 8.6624 44.0826C8.7394 43.9286 8.8549 43.8516 9.0089 43.7746C15.1689 41.6186 19.5964 38.8851 22.9844 35.1121L44.2364 47.5091Z" fill="white"/>
<path d="M100.015 63.0678H109.844V33.5036H116.865V25.7797H109.844V22.5835C109.844 18.4552 111.449 16.724 114.391 16.724C115.595 16.724 117.066 16.9903 118.337 17.523L120.142 10.2651C118.47 9.66586 115.929 9 113.054 9C103.626 9 100.015 14.9927 100.015 22.7833V25.8462H95V33.5036H100.015V63.0678ZM123.218 63.0678H132.98V25.7797H123.218V63.0678ZM128.099 19.7869C131.509 19.7869 133.85 17.6562 133.85 14.3935C133.85 11.1973 131.509 9.06658 128.099 9.06658C124.689 9.06658 122.415 11.1973 122.415 14.3935C122.415 17.6562 124.689 19.7869 128.099 19.7869Z" fill="#00B2FF"/>
<path d="M139.132 63.0678H148.962V37.4322C151.703 34.7022 153.642 33.2373 156.718 33.2373C160.396 33.2373 162.001 35.2349 162.001 41.0278V63.0678H171.83V39.8293C171.83 30.4407 168.353 24.8475 160.262 24.8475C155.18 24.8475 150.433 27.5109 147.156 30.707V25.7797H139.132V63.0678Z" fill="#00B2FF"/>
<path d="M178.149 63.0678H187.978V25.7797H178.149V63.0678ZM183.097 19.7869C186.44 19.7869 188.781 17.6562 188.781 14.3935C188.781 11.1973 186.44 9.06658 183.097 9.06658C179.687 9.06658 177.346 11.1973 177.346 14.3935C177.346 17.6562 179.687 19.7869 183.097 19.7869Z" fill="#00B2FF"/>
<path d="M195.501 63.0678H205.33V37.4322C207.938 34.6356 210.345 33.2373 212.485 33.2373C216.029 33.2373 217.767 35.2349 217.767 41.0278V63.0678H227.53V37.4322C230.205 34.6356 232.612 33.2373 234.752 33.2373C238.296 33.2373 239.967 35.2349 239.967 41.0278V63.0678H249.797V39.8293C249.797 30.4407 246.119 24.8475 238.162 24.8475C233.281 24.8475 229.67 27.7772 226.26 31.3729C224.454 27.2446 221.311 24.8475 215.962 24.8475C211.081 24.8475 206.66 27.5109 203.517 30.7736L203.525 25.7797H195.501V63.0678Z" fill="#00B2FF"/>
<path d="M256.985 63.0678H266.814V25.7797H256.985V63.0678ZM261.933 19.7869C265.276 19.7869 267.617 17.6562 267.617 14.3935C267.617 11.1973 265.276 9.06658 261.933 9.06658C258.523 9.06658 256.182 11.1973 256.182 14.3935C256.182 17.6562 258.523 19.7869 261.933 19.7869Z" fill="#00B2FF"/>
<path d="M273.3 63.0678H302.922V55.3438H285.537L302.321 31.0399V25.7797H275.173V33.5036H290.084L273.3 57.8075V63.0678Z" fill="#00B2FF"/>
<path d="M325.557 64C330.171 64 334.918 62.4019 338.596 59.8717L335.252 53.8789C332.578 55.5436 329.903 56.4758 326.827 56.4758C321.277 56.4758 317.265 53.2797 316.463 47.1538H339.532C339.799 46.2881 340 44.4903 340 42.6259C340 32.3717 334.651 24.8475 324.353 24.8475C315.46 24.8475 306.901 32.3717 306.901 44.4237C306.901 56.7421 315.059 64 325.557 64ZM316.329 40.6283C317.065 35.2349 320.542 32.4383 324.487 32.4383C329.301 32.4383 331.575 35.6344 331.575 40.6283H316.329Z" fill="#00B2FF"/>
</svg>
