<?xml version="1.0" encoding="utf-8"?>
<!-- Generator: Adobe Illustrator 25.2.3, SVG Export Plug-In . SVG Version: 6.00 Build 0)  -->
<svg version="1.1" id="Layer_1" xmlns="http://www.w3.org/2000/svg" xmlns:xlink="http://www.w3.org/1999/xlink" x="0px" y="0px"
	 viewBox="0 0 74.5 53" style="enable-background:new 0 0 74.5 53;" xml:space="preserve">
<style type="text/css">
	.st0{fill:#FD2F60;}
	.st1{fill-rule:evenodd;clip-rule:evenodd;fill:#FD2F60;}
	.st2{fill:#171E27;}
	.st3{fill-rule:evenodd;clip-rule:evenodd;fill:#171E27;}
	.st4{fill:#030303;}
	.st5{fill:#FFFFFF;}
</style>
<g>
	<path class="st0" d="M4.4,19.3l-0.3-0.4v-0.1L4,18.5l0.2,0.1l0.1,0.1v0.2C4.4,19,4.4,19.2,4.4,19.3z"/>
	<path class="st1" d="M4.4,19.3c0-0.1,0-0.3,0-0.4v-0.2l-0.1-0.1L4,18.5l0.1,0.3v0.1L4.4,19.3z"/>
	<path class="st0" d="M4.4,18.9v-0.2l-0.1-0.1L4,18.5l0.1,0.3v0.1l0.3,0.4C4.4,19.2,4.4,19,4.4,18.9z"/>
	<path class="st0" d="M72,43.5c-2.3-0.9-3.8-2.4-5.4-4.1c-1.4-1.5-3-2.9-4.7-4c-1.3-0.8-3.5-1.8-7.3-2.2c-0.9-0.1-1.8-0.1-2.7-0.1
		c1.9-3,4.7-6.2,10.4-8.5c1.8-0.7,2.7-2.8,2-4.7C64,19,63.4,18.4,62.7,18L45.7,8.7c-2.6-1.4-5.7-1.6-8.5-0.5
		c-6.4,2.6-9.2,6.3-11.7,10.5c-0.7-1.2-1.6-2.2-2.5-3.2c-1.2-1.3-3.7-3.7-6.5-4.7c-2-0.7-4-1-6.1-1.2C8,9.3,6,9.1,3.8,7.8L1.5,6.4
		L0.5,9c-0.1,0.4-1.3,3.7,0.3,6.8c0.5,0.9,1.1,1.7,1.8,2.3C3,18.4,3.5,18.7,3.9,19c0,1.6,0.8,3.1,2,4.1c1.4,1.2,3.2,1.7,4.9,1.5
		c0.2,0.2,0.3,0.4,0.5,0.6c1.3,1.2,3,1.8,4.7,1.8c0.3,0,0.7,0,1-0.1c0.3,0,0.6-0.1,0.8-0.2c0.8-0.2,1.5-0.6,2.1-1.1
		c0.2,0.2,0.4,0.3,0.6,0.5c-2.2,2.8-5.9,6.4-13.9,9.2c-1.9,0.7-2.8,2.7-2.2,4.6c0.3,0.8,0.9,1.5,1.7,2l18.1,9.9
		c1.4,0.8,2.9,1.2,4.5,1.2c1,0,2-0.2,3-0.5c8.9-3,12.7-7.4,15.1-11c0.2,0.1,0.5,0.2,0.8,0.2c0,1.1,0.3,2.2,0.8,3.1
		c1,1.8,2.8,3,4.8,3.4c0.3,0,0.6,0.1,0.9,0.1l0.1,0.2c1,1.4,2.4,2.4,4.1,2.7c0.4,0.1,0.8,0.2,1.3,0.2c0.5,0,1-0.1,1.4-0.2
		c0.7-0.2,1.3-0.5,1.8-0.9c1.5,0.7,3.2,0.8,4.9,0.4c3-0.8,4.8-3.3,5.1-3.9l1.5-2.3L72,43.5z M20.6,22.1l-0.3-0.4l-0.1-0.1l-0.3,0.1
		l0,0.2c-0.1,0.3-0.7,2.1-2.5,2.6c-0.2,0-0.3,0.1-0.5,0.1c-2,0.3-3.9-0.7-4.7-2.5l-0.1-0.2l-0.2,0.1c-0.2,0.1-0.3,0.1-0.5,0.2
		c-1.3,0.3-2.7,0-3.7-0.8c-1-0.8-1.4-2.2-0.9-3.5l0.1-0.2l-0.2-0.1c-1.7-0.5-2.8-1.4-3.4-2.7C2.3,13,2.8,11,3,10.3
		c2.6,1.4,5,1.7,7.3,1.9c1.8,0.1,3.7,0.5,5.5,1c3.7,1.3,7.8,6.4,8.7,9.1c0.2,0.5,0.1,1.5-0.5,1.9c-0.7,0.5-1.6,0.4-2.2-0.3
		L20.6,22.1z M31,49.7c-1.7,0.6-3.6,0.4-5.2-0.5L7.7,39.4c-0.3-0.2-0.4-0.5-0.3-0.8c0.1-0.2,0.2-0.2,0.3-0.3
		c6.2-2.2,10.6-4.9,14-8.7L43,41.9C40.7,44.7,37.3,47.5,31,49.7z M28.8,18.8c2-3.2,4.5-5.9,9.4-7.9c1.9-0.8,4.1-0.7,6,0.3l17,9.3
		c0.2,0.1,0.3,0.3,0.3,0.6c0,0.2-0.2,0.5-0.4,0.6c-5.8,2.3-9,5.4-11.5,9.2L28.8,18.8z M67.3,48.2c-1.5,0.4-3,0-4.5-1L62.6,47
		l-0.1,0.2c-0.4,0.7-1.1,1.2-1.8,1.4c-0.5,0.1-1,0.1-1.5,0c-1.5-0.3-2.7-1.4-3.1-2.9l0-0.2h-0.2h0c-1.9,0.4-3.9-0.5-4.9-2.2
		c-1.2-2,0.2-3.9,0.3-4l0.3-0.4h-0.5l-2.6,0.1c-0.4,0-0.8-0.2-1.1-0.4c-0.3-0.3-0.5-0.7-0.5-1.1c0-0.7,0.8-1.4,1.2-1.5l0.4-0.1
		c2.9-0.8,8.9-0.6,12.1,1.5c1.5,1,3,2.3,4.2,3.7c1.6,1.7,3.3,3.4,6,4.6C69.9,46.9,68.7,47.7,67.3,48.2z"/>
	<path class="st0" d="M70.7,45.7c-0.8,1.2-2,2-3.4,2.5c-1.5,0.4-3,0-4.5-1L62.6,47l-0.1,0.2c-0.4,0.7-1.1,1.2-1.8,1.4
		c-0.5,0.1-1,0.1-1.5,0c-1.5-0.3-2.7-1.4-3.1-2.9l0-0.2h-0.2h0c-1.9,0.4-3.9-0.5-4.9-2.2c-1.2-2,0.2-3.9,0.3-4l0.3-0.4h-0.5L48.3,39
		c-0.4,0-0.8-0.2-1.1-0.4c-0.3-0.3-0.5-0.7-0.5-1.1c0-0.7,0.8-1.4,1.2-1.5l0.4-0.1c2.9-0.8,8.9-0.6,12.1,1.5c1.5,1,3,2.3,4.2,3.7
		C66.3,42.8,68,44.6,70.7,45.7z"/>
	<path class="st0" d="M23.9,24.1c-0.7,0.5-1.6,0.4-2.2-0.3l-1.2-1.7l-0.3-0.4l-0.1-0.1l-0.3,0.1l0,0.2c-0.1,0.3-0.7,2.1-2.5,2.6
		c-0.2,0-0.3,0.1-0.5,0.1c-2,0.3-3.9-0.7-4.7-2.5l-0.1-0.2l-0.2,0.1c-0.2,0.1-0.3,0.1-0.5,0.2c-1.3,0.3-2.7,0-3.7-0.8
		c-1-0.8-1.4-2.2-0.9-3.5l0.1-0.2l-0.2-0.1c-1.7-0.5-2.8-1.4-3.4-2.7C2.3,13,2.8,11,3,10.3c2.6,1.4,5,1.7,7.3,1.9
		c1.8,0.1,3.7,0.5,5.5,1c3.7,1.3,7.8,6.4,8.7,9.1C24.5,22.7,24.5,23.7,23.9,24.1z"/>
	<path class="st0" d="M61.6,21.2c0,0.2-0.2,0.5-0.4,0.6c-5.8,2.3-9,5.4-11.5,9.2L28.8,18.8c2-3.2,4.5-5.9,9.4-7.9
		c1.9-0.8,4.1-0.7,6,0.3l17,9.3C61.5,20.7,61.6,20.9,61.6,21.2z"/>
	<path class="st0" d="M43,42c-2.3,2.7-5.7,5.6-12.1,7.7c-1.7,0.6-3.6,0.4-5.2-0.5L7.7,39.4c-0.3-0.2-0.4-0.5-0.3-0.8
		c0.1-0.2,0.2-0.2,0.3-0.3c6.2-2.2,10.6-4.9,14-8.7L43,42z"/>
	<path class="st0" d="M64.6,13.9h-3v7.5h3V13.9z"/>
	<path class="st0" d="M74.5,38h-5.4v6.5h5.4V38z"/>
	<path class="st0" d="M4.6,5.6H0v7h4.6V5.6z"/>
	<path class="st0" d="M10.4,32.6h-6v6.7h6V32.6z"/>
	<path class="st2" d="M4.4,12.9l-0.3-0.4v-0.1L4,12.1l0.2,0.1l0.1,0.1v0.2C4.4,12.6,4.4,12.7,4.4,12.9z"/>
	<path class="st3" d="M4.4,12.9c0-0.1,0-0.3,0-0.4v-0.2l-0.1-0.1L4,12.1l0.1,0.3v0.1L4.4,12.9z"/>
	<path class="st2" d="M4.4,12.4v-0.2l-0.1-0.1L4,12.1l0.1,0.3v0.1l0.3,0.4C4.4,12.7,4.4,12.6,4.4,12.4z"/>
	<path class="st4" d="M72,37c-2.3-0.9-3.8-2.4-5.4-4.1c-1.4-1.5-3-2.9-4.7-4c-1.3-0.8-3.5-1.8-7.3-2.2c-0.9-0.1-1.8-0.1-2.7-0.1
		c1.9-3,4.7-6.2,10.4-8.5c1.8-0.7,2.7-2.8,2-4.7c-0.3-0.8-0.9-1.4-1.6-1.8L45.7,2.2c-2.6-1.4-5.7-1.6-8.5-0.5
		C30.7,4.4,27.9,8,25.4,12.2C24.7,11,23.8,10,22.9,9c-1.2-1.3-3.7-3.7-6.5-4.7c-2-0.7-4-1-6.1-1.2C8,2.8,6,2.6,3.8,1.3L1.5,0
		L0.5,2.6C0.4,2.9-0.7,6.2,0.8,9.3c0.5,0.9,1.1,1.7,1.8,2.3C3,12,3.4,12.3,3.9,12.5c0,1.6,0.8,3.1,2,4.1c1.4,1.2,3.2,1.7,4.9,1.5
		c0.2,0.2,0.3,0.4,0.5,0.6c1.3,1.2,3,1.8,4.7,1.8c0.3,0,0.7,0,1-0.1c0.3,0,0.6-0.1,0.8-0.2c0.8-0.2,1.5-0.6,2.1-1.1
		c0.2,0.2,0.4,0.3,0.6,0.5c-2.2,2.8-5.9,6.4-13.9,9.2c-1.9,0.7-2.8,2.7-2.2,4.6c0.3,0.8,0.9,1.5,1.7,2l18.1,9.9
		c1.4,0.8,2.9,1.2,4.5,1.2c1,0,2-0.2,3-0.5c8.9-3,12.7-7.4,15.1-11c0.2,0.1,0.5,0.2,0.8,0.2c0,1.1,0.3,2.2,0.8,3.1
		c1,1.8,2.8,3,4.8,3.4c0.3,0,0.6,0.1,0.9,0.1l0.1,0.2c1,1.4,2.4,2.4,4.1,2.7c0.4,0.1,0.8,0.2,1.3,0.2c0.5,0,1-0.1,1.4-0.2
		c0.7-0.2,1.3-0.5,1.8-0.9c1.5,0.7,3.2,0.8,4.9,0.4c3-0.8,4.8-3.3,5.1-3.8l1.5-2.3L72,37z M20.6,15.7l-0.3-0.4l-0.1-0.1l-0.3,0.1
		l0,0.2c-0.1,0.3-0.7,2.1-2.5,2.6C17.2,18,17,18,16.9,18c-2,0.3-3.9-0.7-4.7-2.5l-0.1-0.2l-0.2,0.1c-0.2,0.1-0.3,0.1-0.5,0.2
		c-1.3,0.3-2.7,0-3.7-0.8c-1-0.8-1.4-2.2-0.9-3.5L6.8,11L6.6,11c-1.7-0.5-2.8-1.4-3.4-2.7C2.3,6.5,2.8,4.6,3,3.8
		c2.6,1.4,5,1.7,7.3,1.9c1.8,0.1,3.7,0.5,5.5,1c3.6,1.2,7.7,6.2,8.6,9c0.2,0.5,0.1,1.5-0.5,1.9c-0.7,0.5-1.6,0.4-2.2-0.3L20.6,15.7z
		 M31,43.3c-1.7,0.6-3.6,0.4-5.2-0.5L7.7,33c-0.3-0.2-0.4-0.5-0.3-0.8c0.1-0.2,0.2-0.2,0.3-0.3c6.2-2.2,10.6-4.9,14-8.7L43,35.5
		C40.7,38.3,37.3,41.1,31,43.3z M28.8,12.4c2-3.2,4.5-5.9,9.4-7.9c1.9-0.8,4.1-0.7,6,0.3l17,9.3c0.2,0.1,0.3,0.3,0.3,0.6
		c0,0.2-0.2,0.5-0.4,0.6c-5.8,2.3-9,5.4-11.5,9.2L28.8,12.4z M67.3,41.8c-1.5,0.4-3,0-4.5-1l-0.2-0.2l-0.1,0.2
		c-0.4,0.7-1.1,1.2-1.8,1.4c-0.5,0.1-1,0.1-1.5,0c-1.5-0.3-2.7-1.4-3.1-2.9l0-0.2h-0.2h0c-1.9,0.4-3.9-0.5-4.9-2.2
		c-1.2-2,0.2-3.9,0.3-4l0.3-0.4h-0.5l-2.6,0.1c-0.4,0-0.8-0.2-1.1-0.4c-0.3-0.3-0.5-0.7-0.5-1.1c0-0.7,0.8-1.4,1.2-1.5l0.4-0.1
		c2.9-0.8,8.9-0.6,12.1,1.5c1.5,1,3,2.3,4.2,3.7c1.6,1.7,3.3,3.4,6,4.6C69.9,40.4,68.7,41.3,67.3,41.8z"/>
	<path class="st5" d="M70.7,39.3c-0.8,1.2-2,2-3.4,2.5c-1.5,0.4-3,0-4.5-1l-0.2-0.2l-0.1,0.2c-0.4,0.7-1.1,1.2-1.8,1.4
		c-0.5,0.1-1,0.1-1.5,0c-1.5-0.3-2.7-1.4-3.1-2.9l0-0.2h-0.2h0c-1.9,0.4-3.9-0.5-4.9-2.2c-1.2-2,0.2-3.9,0.3-4l0.3-0.4h-0.5
		l-2.6,0.1c-0.4,0-0.8-0.2-1.1-0.4c-0.3-0.3-0.5-0.7-0.5-1.1c0-0.7,0.8-1.4,1.2-1.5l0.4-0.1c2.9-0.8,8.9-0.6,12.1,1.5
		c1.5,1,3,2.3,4.2,3.7C66.3,36.4,68,38.1,70.7,39.3z"/>
	<path class="st5" d="M23.9,17.7c-0.7,0.5-1.6,0.4-2.2-0.3l-1.2-1.7l-0.3-0.4l-0.1-0.1l-0.3,0.1l0,0.2c-0.1,0.3-0.7,2.1-2.5,2.6
		C17.2,18,17,18,16.9,18c-2,0.3-3.9-0.7-4.7-2.5l-0.1-0.2l-0.3,0.1c-0.2,0.1-0.3,0.1-0.5,0.2c-1.3,0.3-2.7,0-3.7-0.8
		c-1-0.8-1.4-2.2-0.9-3.5L6.7,11l-0.2-0.1c-1.7-0.5-2.8-1.4-3.4-2.7C2.3,6.5,2.7,4.5,2.9,3.8c2.6,1.4,5,1.7,7.3,1.9
		c1.8,0.1,3.7,0.5,5.5,1c3.7,1.3,7.8,6.3,8.7,9C24.5,16.2,24.5,17.2,23.9,17.7z"/>
	<path class="st5" d="M61.6,14.7c0,0.2-0.2,0.5-0.4,0.6c-5.8,2.3-9,5.4-11.5,9.2L28.8,12.4c2-3.2,4.5-5.9,9.4-7.9
		c1.9-0.8,4.1-0.7,6,0.3l17,9.3C61.5,14.2,61.6,14.5,61.6,14.7z"/>
	<path class="st5" d="M43,35.5c-2.3,2.7-5.7,5.6-12.1,7.7c-1.7,0.6-3.6,0.4-5.2-0.5L7.7,33c-0.3-0.2-0.4-0.5-0.3-0.8
		c0.1-0.2,0.2-0.2,0.3-0.3c6.2-2.2,10.6-4.9,14-8.7L43,35.5z"/>
</g>
</svg>
